<?xml version="1.0" standalone="no"?>
<!DOCTYPE svg PUBLIC "-//W3C//DTD SVG 20010904//EN"
 "http://www.w3.org/TR/2001/REC-SVG-20010904/DTD/svg10.dtd">
<svg version="1.0" xmlns="http://www.w3.org/2000/svg"
 width="500.000000pt" height="500.000000pt" viewBox="0 0 500.000000 500.000000"
 preserveAspectRatio="xMidYMid meet">
<metadata>
Created by potrace 1.11, written by Peter Selinger 2001-2013
</metadata>
<g transform="translate(0.000000,500.000000) scale(0.100000,-0.100000)"
fill="#000000" stroke="none">
<path d="M2413 4260 c-174 -19 -332 -92 -463 -216 -41 -38 -78 -61 -145 -89
-392 -160 -719 -456 -905 -817 l-35 -68 -35 7 c-72 15 -192 7 -266 -19 -312
-109 -450 -446 -307 -746 37 -77 150 -190 230 -231 71 -36 167 -61 233 -61
l45 0 33 -102 c35 -113 117 -289 177 -383 173 -271 429 -497 727 -640 686
-330 1514 -202 2054 317 64 62 152 160 195 218 96 126 203 333 250 484 l34
106 50 0 c156 0 324 90 420 225 69 97 99 187 99 305 0 155 -51 275 -164 385
-130 125 -317 179 -485 139 -16 -4 -26 8 -55 63 -182 357 -515 659 -895 814
-44 18 -84 36 -89 40 -4 4 31 26 78 50 47 23 86 45 86 49 0 11 -112 42 -195
54 l-80 11 115 44 c63 24 119 47 124 52 17 15 -69 22 -203 16 -141 -6 -302
-35 -461 -81 -46 -14 -86 -24 -87 -22 -2 2 27 23 64 47 l67 44 -40 7 c-46 8
-75 8 -171 -2z m-373 -970 c179 -61 336 -185 427 -337 14 -24 29 -43 33 -43 4
0 19 19 33 43 59 100 178 214 285 274 109 61 193 84 323 90 146 7 236 -11 357
-72 209 -106 355 -286 428 -531 37 -126 44 -318 16 -454 -38 -187 -123 -341
-255 -467 -75 -71 -179 -140 -249 -164 -33 -11 -37 -17 -43 -58 -11 -74 -62
-193 -114 -267 -117 -166 -298 -289 -506 -344 -448 -117 -934 74 -1105 435
-33 71 -43 100 -65 195 -4 20 -26 35 -108 74 -90 44 -113 61 -197 145 -189
190 -270 408 -257 693 16 387 256 705 601 799 99 27 301 21 396 -11z m-1245
-408 c-33 -106 -57 -239 -67 -369 -8 -100 -16 -153 -23 -153 -23 0 -103 61
-128 98 -39 56 -49 90 -50 162 0 79 24 141 77 193 51 52 101 74 189 86 5 1 6
-7 2 -17z m3525 -14 c55 -23 93 -59 128 -118 24 -39 27 -56 27 -130 0 -62 -5
-94 -18 -117 -29 -55 -78 -103 -129 -129 l-48 -24 0 54 c0 130 -41 390 -76
479 -6 17 -3 18 32 12 22 -4 59 -16 84 -27z"/>
<path d="M1755 2262 c-68 -33 -128 -93 -157 -159 -21 -48 -36 -153 -22 -153 5
1 24 21 41 45 112 152 349 191 516 85 26 -16 50 -30 52 -30 8 0 -19 65 -41
100 -81 129 -250 177 -389 112z"/>
<path d="M2987 2276 c-82 -30 -165 -117 -191 -203 -7 -21 -3 -20 49 12 73 44
139 59 235 53 124 -7 222 -64 303 -178 18 -25 18 -24 14 45 -7 116 -63 202
-169 255 -51 25 -73 30 -132 30 -39 -1 -88 -7 -109 -14z"/>
<path d="M2181 1979 c-163 -8 -592 -47 -600 -55 -3 -3 60 -1 140 3 220 12
1167 8 1409 -5 118 -7 251 -14 295 -17 l80 -4 -105 19 c-327 58 -779 80 -1219
59z"/>
<path d="M2384 1900 c-96 -19 -154 -57 -154 -100 0 -56 95 -100 237 -108 141
-7 257 22 308 78 18 19 18 24 5 48 -41 73 -237 113 -396 82z"/>
<path d="M2310 1384 c0 -24 43 -69 87 -91 45 -22 63 -25 126 -21 60 3 82 8
116 31 38 25 71 70 60 82 -3 2 -25 -6 -50 -18 -37 -18 -61 -22 -144 -22 -84 0
-107 4 -142 23 -44 23 -53 26 -53 16z"/>
</g>
</svg>
